<?xml version="1.0" encoding="utf-8"?>
<!-- Generator: Adobe Illustrator 15.1.0, SVG Export Plug-In . SVG Version: 6.00 Build 0)  -->
<!DOCTYPE svg PUBLIC "-//W3C//DTD SVG 1.1//EN" "http://www.w3.org/Graphics/SVG/1.1/DTD/svg11.dtd">
<svg version="1.1" id="Warstwa_1" xmlns="http://www.w3.org/2000/svg" xmlns:xlink="http://www.w3.org/1999/xlink" x="0px" y="0px"
	 width="16px" height="16px" viewBox="0 0 16 16" enable-background="new 0 0 16 16" xml:space="preserve">
<path d="M12.607,5.695c0-1-0.813-1.811-1.812-1.811H5.561c-1.001,0-1.811,0.812-1.811,1.811v5.235c0,0.999,0.81,1.81,1.811,1.81
	h5.235c0.999,0,1.812-0.811,1.812-1.81V5.695z M10.796,4.689c0.553,0,1.006,0.453,1.006,1.006v5.235
	c0,0.553-0.453,1.006-1.006,1.006H5.561c-0.553,0-1.006-0.453-1.006-1.006V5.695c0-0.554,0.454-1.006,1.006-1.006H10.796z"/>
</svg>
