<?xml version="1.0" encoding="utf-8"?>
<!-- Generator: Adobe Illustrator 15.1.0, SVG Export Plug-In . SVG Version: 6.00 Build 0)  -->
<!DOCTYPE svg PUBLIC "-//W3C//DTD SVG 1.1//EN" "http://www.w3.org/Graphics/SVG/1.1/DTD/svg11.dtd">
<svg version="1.1" id="Warstwa_1" xmlns="http://www.w3.org/2000/svg" xmlns:xlink="http://www.w3.org/1999/xlink" x="0px" y="0px"
	 width="16px" height="16px" viewBox="0 0 16 16" enable-background="new 0 0 16 16" xml:space="preserve">
<path d="M14.059,5.853c0.201-0.201,0.201-0.516,0-0.717l-0.692-0.692c-0.2-0.2-0.516-0.2-0.717,0l-4.07,4.071L6.925,6.86
	c-0.2-0.203-0.515-0.203-0.716,0L5.516,7.551c-0.202,0.202-0.202,0.515,0,0.718l2.706,2.706c0.2,0.2,0.516,0.2,0.717,0L14.059,5.853
	z M12.605,8.927c0-0.082-0.051-0.151-0.124-0.183c-0.027-0.013-0.052-0.02-0.077-0.02c-0.051,0-0.102,0.02-0.146,0.064l-0.4,0.402
	c-0.039,0.037-0.058,0.088-0.058,0.139v1.598c0,0.556-0.452,1.009-1.006,1.009H5.56c-0.554,0-1.006-0.453-1.006-1.006V5.695
	c0-0.554,0.453-1.007,1.006-1.007h5.235c0.095,0,0.188,0.014,0.283,0.039c0.018,0.005,0.037,0.012,0.056,0.012
	c0.051,0,0.107-0.024,0.146-0.063l0.308-0.307c0.051-0.052,0.068-0.113,0.058-0.183c-0.014-0.063-0.058-0.12-0.114-0.145
	c-0.232-0.108-0.483-0.157-0.735-0.157H5.56c-1,0-1.81,0.812-1.81,1.811v5.235c0,0.999,0.81,1.81,1.81,1.81h5.235
	c0.999,0,1.811-0.811,1.811-1.81V8.927z"/>
</svg>
