<?xml version="1.0" encoding="utf-8"?>
<!-- Generator: Adobe Illustrator 15.1.0, SVG Export Plug-In . SVG Version: 6.00 Build 0)  -->
<!DOCTYPE svg PUBLIC "-//W3C//DTD SVG 1.1//EN" "http://www.w3.org/Graphics/SVG/1.1/DTD/svg11.dtd">
<svg version="1.1" id="Warstwa_1" xmlns="http://www.w3.org/2000/svg" xmlns:xlink="http://www.w3.org/1999/xlink" x="0px" y="0px"
	 width="1792px" height="1792px" viewBox="0 0 1792 1792" enable-background="new 0 0 1792 1792" xml:space="preserve">
<path d="M667.652,1211.116l52.232-94.42c-38.839-28.125-69.197-63.616-91.071-106.473C606.938,967.366,596,922.054,596,874.286
	c0-54.018,13.616-104.241,40.848-150.669C534.616,775.848,449.572,854.643,381.715,960
	C456.268,1075.179,551.58,1158.884,667.652,1211.116z M928.143,702.857c0-8.928-3.125-16.518-9.375-22.768
	c-6.25-6.25-13.839-9.375-22.768-9.375c-55.804,0-103.684,19.978-143.638,59.933c-39.956,39.956-59.933,87.835-59.933,143.638
	c0,8.928,3.125,16.518,9.375,22.768c6.25,6.25,13.839,9.375,22.768,9.375s16.518-3.125,22.768-9.375
	c6.25-6.25,9.375-13.84,9.375-22.768c0-38.393,13.616-71.205,40.848-98.438C824.794,748.616,857.607,735,896,735
	c8.929,0,16.518-3.125,22.768-9.375S928.143,711.786,928.143,702.857z M1171.224,574.955c0,3.125-0.224,5.134-0.67,6.027
	C1123.679,664.911,1053.366,791.25,959.616,960s-164.286,295.313-211.607,379.688l-32.813,59.598
	c-4.464,7.144-10.714,10.715-18.75,10.715c-5.357,0-35.268-15.625-89.732-46.875c-7.143-4.465-10.714-10.715-10.714-18.75
	c0-5.357,9.821-24.777,29.464-58.259c-63.84-29.018-122.657-67.634-176.451-115.849c-53.795-48.214-100.335-102.901-139.62-164.063
	C300.464,992.366,296,976.964,296,960s4.464-32.366,13.393-46.205c68.303-104.911,153.125-187.723,254.464-248.438
	C665.197,604.643,775.91,574.286,896,574.286c39.732,0,79.91,3.794,120.536,11.384l36.16-64.955
	c4.464-7.143,10.715-10.714,18.75-10.714c2.232,0,6.25,1.339,12.054,4.018c5.803,2.679,12.724,6.139,20.759,10.38
	c8.036,4.241,15.402,8.37,22.099,12.388s13.728,8.147,21.094,12.388c7.366,4.241,11.719,6.808,13.058,7.701
	C1167.652,561.339,1171.224,567.366,1171.224,574.955z M1196,874.286c0,62.054-17.635,118.638-52.901,169.754
	c-35.269,51.116-81.921,87.835-139.956,110.156l187.5-336.161C1194.214,838.125,1196,856.875,1196,874.286z M1496,960
	c0,15.625-4.465,31.026-13.393,46.205c-17.411,28.572-41.742,60.938-72.991,97.099c-66.964,76.786-144.532,136.384-232.701,178.794
	c-88.17,42.411-181.808,63.616-280.915,63.616l49.554-88.393c94.643-8.036,182.254-38.616,262.835-91.741
	c80.58-53.125,147.879-121.651,201.897-205.58c-51.34-79.911-114.286-145.536-188.84-196.875l42.188-75
	c42.411,28.572,83.147,62.724,122.21,102.455c39.063,39.732,71.317,80.804,96.764,123.215C1491.535,928.974,1496,944.375,1496,960z"
	/>
</svg>
