<?xml version="1.0" encoding="utf-8"?>
<!-- Generator: Adobe Illustrator 15.1.0, SVG Export Plug-In . SVG Version: 6.00 Build 0)  -->
<!DOCTYPE svg PUBLIC "-//W3C//DTD SVG 1.1//EN" "http://www.w3.org/Graphics/SVG/1.1/DTD/svg11.dtd">
<svg version="1.1" id="Warstwa_1" xmlns="http://www.w3.org/2000/svg" xmlns:xlink="http://www.w3.org/1999/xlink" x="0px" y="0px"
	 width="1792px" height="1792px" viewBox="0 0 1792 1792" enable-background="new 0 0 1792 1792" xml:space="preserve">
<path d="M1410.286,960c-67.858-105.357-152.902-184.152-255.134-236.384c27.231,46.428,40.848,96.651,40.848,150.669
	c0,82.589-29.354,153.237-88.058,211.942c-58.706,58.706-129.354,88.058-211.942,88.058c-82.59,0-153.237-29.352-211.942-88.058
	C625.353,1027.522,596,956.875,596,874.286c0-54.018,13.616-104.241,40.848-150.669C534.616,775.848,449.572,854.643,381.715,960
	c59.375,91.518,133.817,164.397,223.326,218.639C694.549,1232.879,791.536,1260,896,1260c104.464,0,201.451-27.121,290.96-81.361
	C1276.469,1124.397,1350.91,1051.518,1410.286,960z M928.143,702.857c0-8.928-3.125-16.518-9.375-22.768
	c-6.25-6.25-13.839-9.375-22.768-9.375c-55.804,0-103.684,19.978-143.638,59.933c-39.956,39.956-59.933,87.835-59.933,143.638
	c0,8.928,3.125,16.518,9.375,22.768c6.25,6.25,13.839,9.375,22.768,9.375s16.518-3.125,22.768-9.375
	c6.25-6.25,9.375-13.84,9.375-22.768c0-38.393,13.616-71.205,40.848-98.438C824.794,748.616,857.607,735,896,735
	c8.929,0,16.518-3.125,22.768-9.375S928.143,711.786,928.143,702.857z M1496,960c0,15.179-4.465,30.58-13.393,46.205
	c-62.501,102.679-146.541,184.934-252.121,246.764S1013.41,1345.714,896,1345.714c-117.411,0-228.907-31.026-334.487-93.08
	c-105.581-62.054-189.621-144.196-252.12-246.429C300.464,990.58,296,975.179,296,960s4.464-30.581,13.393-46.205
	c62.5-102.232,146.54-184.375,252.12-246.429c105.58-62.054,217.076-93.081,334.487-93.081c117.41,0,228.906,31.027,334.486,93.081
	s189.62,144.196,252.121,246.429C1491.535,929.419,1496,944.821,1496,960z"/>
</svg>
